# xmcd
#
# Track frame offsets: 
#        183
#        16580
#        31803
#        52633
#        65840
#        79455
#        93878
#        108035
#        122585
#        143130
#        157600
#        171208
#        184568
#
# Disc length: 2725 seconds
#
# Revision: 0
# Processed by: cddbd v1.5.2PL0 Copyright (c) Steve Scherf et al.
# Submitted via: ExactAudioCopyFreeDBPlugin 1.0
#
DISCID=8e0aa30d
DTITLE=Joan Baez - Joan Baez
DYEAR=1992
DGENRE=Pop
TTITLE0=The River In The Pines
TTITLE1=Kumbaya
TTITLE2=Wild Mountain Thyme
TTITLE3=Once I Had A Sweetheart
TTITLE4=Jakaroe
TTITLE5=Manha De Canaval
TTITLE6=Plaisir D'Amour
TTITLE7=Donna Donna
TTITLE8=Poor Way Faring Stranger
TTITLE9=Green Green Grass Of Home
TTITLE10=Hel Me Make It Through The Night
TTITLE11=House Of The Rising Sun
TTITLE12=Love Is Just a Four-Letter World
EXTD=
EXTT0=
EXTT1=
EXTT2=
EXTT3=
EXTT4=
EXTT5=
EXTT6=
EXTT7=
EXTT8=
EXTT9=
EXTT10=
EXTT11=
EXTT12=
PLAYORDER=
